<svg xmlns="http://www.w3.org/2000/svg" width="320" height="200" viewBox="0 0 320 200"><path d="M30 47.5 L126 47.5 L126 30 L190 65 L126 100 L126 82.5 L30 82.5 Z" fill="#2563eb"/><path d="M30 47.5 L126 47.5 L126 30 L190 65 L126 100 L126 82.5 L30 82.5 Z" fill="none" stroke="#1e3a8a" stroke-width="2"/><path d="M40.743 151.857 L89.921 136.494 L156.061 169.191 L158.318 169.858 L160.669 169.978 L162.983 169.545 L241.193 138.818 L241.193 138.818 L242.427 138.18 L243.368 137.158 L243.903 135.876 L243.967 134.488 L243.553 133.162 L242.71 132.058 L241.54 131.308 L240.185 131.004 L238.807 131.182 L238.807 131.182 L160.543 149.353 L92.364 124.485 L90.856 124.061 L89.289 124.042 L87.772 124.429 L39.257 148.143 L39.257 148.143 L38.667 148.509 L38.237 149.055 L38.02 149.715 L38.042 150.409 L38.3 151.054 L38.763 151.572 L39.375 151.9 L40.063 151.999 L40.743 151.857 Z" fill="#111827"/></svg>