<svg xmlns="http://www.w3.org/2000/svg" width="260" height="220" viewBox="0 0 260 220"><path d="M70 60 L173.923 120 L138.923 180.622 L35 120.622 Z" fill="#f5a623"/><path d="M70 60 L173.923 120 L138.923 180.622 L35 120.622 Z" fill="none" stroke="#8a5a00" stroke-width="3"/><path d="M226.066 56.36 C237.782 68.076 228.284 96.569 204.853 120 C181.421 143.431 152.929 152.929 141.213 141.213 C129.497 129.497 138.995 101.005 162.426 77.574 C185.858 54.142 214.35 44.645 226.066 56.36 Z" fill="#17bf63" fill-opacity="0.7"/><path d="M226.066 56.36 C237.782 68.076 228.284 96.569 204.853 120 C181.421 143.431 152.929 152.929 141.213 141.213 C129.497 129.497 138.995 101.005 162.426 77.574 C185.858 54.142 214.35 44.645 226.066 56.36 Z" fill="none" stroke="#0c6b38" stroke-width="3" stroke-opacity="0.7"/></svg>